<?xml version="1.0" standalone="no"?>
<!DOCTYPE svg PUBLIC "-//W3C//DTD SVG 20010904//EN"
 "http://www.w3.org/TR/2001/REC-SVG-20010904/DTD/svg10.dtd">
<svg version="1.0" xmlns="http://www.w3.org/2000/svg"
 width="500.000000pt" height="500.000000pt" viewBox="0 0 500.000000 500.000000"
 preserveAspectRatio="xMidYMid meet">

<g transform="translate(0.000000,500.000000) scale(0.100000,-0.100000)"
fill="#000000" stroke="none">
<path d="M2670 3581 c-19 -5 -73 -18 -119 -31 -74 -19 -93 -21 -161 -12 -114
14 -236 -9 -290 -55 -66 -55 -110 -186 -111 -326 -1 -80 2 -95 30 -152 35 -71
109 -145 187 -187 89 -48 87 -49 149 86 63 137 69 146 100 146 18 0 29 15 59
81 35 75 36 82 21 99 -27 30 -29 84 -6 158 25 77 37 99 47 90 4 -4 -3 -30 -15
-58 -31 -73 -38 -143 -17 -175 35 -54 96 -23 156 79 40 68 60 91 60 69 0 -14
-72 -128 -98 -156 -15 -16 -41 -30 -62 -33 -33 -5 -37 -10 -69 -85 -26 -61
-32 -82 -23 -91 20 -20 13 -52 -33 -153 -25 -54 -44 -99 -42 -101 2 -2 30 0
62 4 l59 7 36 72 c19 39 48 84 64 99 26 23 28 27 13 36 -9 5 -17 17 -17 26 0
27 105 233 140 275 38 45 88 73 103 58 13 -13 -7 -63 -102 -266 -39 -82 -71
-163 -71 -178 0 -16 -5 -37 -10 -48 -15 -28 -5 -24 69 25 94 63 177 140 209
194 23 40 27 58 27 122 0 41 -6 93 -13 116 -19 65 -112 205 -157 236 -44 31
-115 43 -175 29z m-30 -137 c0 -10 -50 -108 -61 -118 -17 -19 -9 13 18 69 23
47 43 70 43 49z m39 -71 c-22 -52 -37 -73 -50 -73 -5 0 5 29 23 64 36 74 58
80 27 9z"/>
<path d="M2822 3293 c-46 -47 -103 -143 -142 -241 -11 -29 -11 -34 5 -46 14
-10 15 -17 6 -34 -14 -27 -14 -32 3 -32 8 0 18 10 22 23 4 12 42 98 86 191 43
93 77 174 75 180 -3 6 -27 -12 -55 -41z"/>
<path d="M3212 2649 c-42 -27 -104 -154 -163 -332 -35 -107 -40 -132 -31 -153
8 -16 20 -24 36 -24 20 0 31 12 58 63 l33 62 116 3 117 3 23 -48 c19 -38 30
-49 52 -51 44 -5 70 24 63 70 -9 55 -66 184 -125 282 -92 152 -113 167 -179
125z m112 -251 c-3 -4 -32 -8 -64 -8 l-58 0 19 62 c10 34 21 69 24 77 4 11 18
-6 45 -54 21 -38 36 -73 34 -77z"/>
<path d="M1595 2556 c-15 -22 -16 -52 -13 -220 3 -175 5 -196 22 -215 32 -35
68 -24 84 24 12 34 11 65 -3 210 -9 94 -22 181 -28 195 -17 34 -42 36 -62 6z"/>
<path d="M935 2459 c-67 -65 -106 -97 -109 -88 -2 8 -10 45 -16 82 -12 67 -29
90 -58 80 -25 -9 -29 -50 -23 -244 8 -213 17 -249 64 -249 39 0 47 18 47 110
0 48 3 90 7 93 3 4 41 -31 84 -77 104 -111 172 -142 212 -98 39 43 23 64 -136
182 -48 35 -87 67 -86 70 0 3 24 25 52 49 115 97 137 121 137 150 0 29 -15 41
-51 41 -12 0 -63 -42 -124 -101z"/>
<path d="M1766 2531 c-22 -24 -13 -57 16 -67 16 -5 27 0 40 16 22 27 22 34 2
54 -21 21 -37 20 -58 -3z"/>
<path d="M2669 2478 c-9 -16 -10 -63 -5 -167 6 -129 9 -148 28 -168 28 -30 53
-29 83 2 19 18 25 35 25 65 0 56 20 131 37 137 7 3 26 0 42 -7 22 -9 35 -9 50
0 31 16 26 47 -14 87 -35 35 -37 36 -100 31 -59 -5 -65 -4 -80 18 -19 30 -51
31 -66 2z"/>
<path d="M4083 2481 c-35 -12 -57 -14 -68 -8 -26 14 -34 -2 -51 -104 -12 -70
-14 -127 -9 -224 7 -139 17 -165 61 -165 37 0 54 36 54 116 l0 71 52 6 c59 7
92 28 126 77 28 42 29 96 1 160 -34 78 -83 99 -166 71z m75 -83 c13 -13 16
-56 6 -82 -8 -20 -66 -31 -92 -17 -26 14 -19 41 18 81 30 32 49 37 68 18z"/>
<path d="M2360 2442 c-87 -87 -76 -243 21 -292 51 -27 119 -26 153 1 47 37 26
78 -41 80 -15 0 -37 4 -48 8 -16 7 -8 11 38 20 77 17 117 50 117 101 0 69 -66
120 -155 120 -41 0 -52 -5 -85 -38z m131 -52 c10 -6 19 -14 19 -19 0 -9 -90
-24 -97 -17 -7 6 35 46 48 46 6 0 19 -5 30 -10z"/>
<path d="M3705 2468 c-11 -7 -38 -12 -60 -12 l-40 -1 -13 -65 c-14 -65 -19
-354 -7 -390 6 -20 40 -36 65 -31 30 5 40 34 40 113 l0 78 48 0 c88 0 152 64
152 150 0 56 -28 119 -65 148 -31 24 -87 29 -120 10z m83 -121 c4 -51 -11 -67
-64 -67 -48 0 -54 11 -33 53 21 41 42 58 68 55 22 -3 26 -9 29 -41z"/>
<path d="M2095 2423 c-11 -3 -37 -18 -57 -34 l-38 -30 -12 26 c-9 20 -18 25
-37 23 -22 -3 -27 -10 -34 -48 -4 -25 -7 -85 -5 -133 3 -97 17 -121 68 -115
25 3 31 11 73 108 28 62 52 98 61 89 3 -3 11 -32 17 -65 13 -73 32 -104 64
-104 44 0 58 26 53 99 -9 122 -75 202 -153 184z"/>
<path d="M1416 2398 c-9 -12 -16 -30 -16 -38 0 -37 -32 -137 -50 -154 -19 -19
-19 -19 -30 10 -7 16 -15 59 -19 97 -8 75 -22 98 -49 81 -37 -23 -54 -144 -31
-215 16 -45 55 -87 91 -94 22 -5 43 0 80 19 46 24 52 25 68 11 21 -19 44 -19
61 1 11 13 10 30 -4 97 -9 45 -17 105 -17 133 0 27 -5 55 -12 62 -19 19 -55
14 -72 -10z"/>
<path d="M1779 2373 c-5 -15 -13 -77 -16 -139 -6 -107 -5 -112 16 -123 24 -13
55 -2 65 25 11 30 7 239 -6 252 -21 21 -48 14 -59 -15z"/>
<path d="M3715 1881 c-3 -6 -1 -19 5 -30 11 -21 4 -51 -11 -51 -5 0 -14 11
-19 25 -11 30 -30 33 -30 5 0 -29 37 -62 61 -55 15 5 19 2 19 -15 0 -29 24
-20 28 10 8 50 -35 139 -53 111z"/>
<path d="M1242 1844 c-24 -17 -30 -65 -9 -82 24 -19 57 -24 57 -8 0 8 -9 18
-21 21 -14 5 -19 14 -17 28 2 18 9 22 41 21 24 -1 37 3 37 11 0 27 -54 33 -88
9z"/>
<path d="M1350 1800 c-25 -25 -36 -68 -23 -89 17 -27 60 -25 88 3 31 31 32 70
3 90 -30 21 -44 20 -68 -4z m56 -24 c8 -22 -14 -56 -36 -56 -25 0 -26 27 -3
52 19 22 32 23 39 4z"/>
<path d="M3578 1799 c-24 -13 -23 -28 6 -94 26 -59 52 -76 41 -27 -4 21 -1 33
15 47 49 44 -5 108 -62 74z m47 -39 c0 -22 -29 -18 -33 3 -3 14 1 18 15 15 10
-2 18 -10 18 -18z"/>
<path d="M3460 1734 c-21 -24 24 -155 48 -140 7 4 8 15 3 29 -6 17 -3 27 15
44 28 26 30 45 8 67 -20 20 -58 20 -74 0z m60 -28 c0 -15 -24 -28 -34 -19 -13
14 -5 33 14 33 11 0 20 -6 20 -14z"/>
<path d="M1473 1725 c-23 -16 -63 -75 -63 -94 0 -23 20 -10 46 29 30 46 43 51
36 15 -5 -28 9 -33 28 -10 25 30 29 14 8 -30 -23 -47 -17 -74 9 -40 41 54 50
115 16 115 -8 0 -21 7 -29 15 -19 19 -24 19 -51 0z"/>
<path d="M3381 1696 c-13 -16 -17 -118 -6 -136 10 -17 25 -11 25 9 0 28 21 37
36 17 7 -10 17 -15 23 -12 12 8 -23 92 -48 119 -16 16 -19 16 -30 3z m29 -56
c0 -5 -5 -10 -11 -10 -5 0 -7 5 -4 10 3 6 8 10 11 10 2 0 4 -4 4 -10z"/>
<path d="M1601 1650 c-17 -28 -31 -55 -31 -60 0 -11 61 -39 73 -33 13 8 7 22
-13 28 -11 3 -20 12 -20 20 0 8 7 11 20 8 14 -4 20 0 20 11 0 9 -5 16 -11 16
-5 0 -7 5 -4 10 3 6 17 7 31 4 33 -8 32 19 -1 34 -14 7 -28 12 -30 12 -2 0
-17 -23 -34 -50z"/>
<path d="M3286 1668 c-3 -7 -4 -24 -3 -37 2 -31 -20 -40 -25 -10 -4 29 -28 38
-28 11 0 -44 24 -122 37 -122 10 0 13 10 11 32 -3 35 17 50 25 18 6 -23 27
-27 27 -5 0 7 -5 37 -11 64 -11 51 -26 73 -33 49z"/>
<path d="M1757 1585 c-15 -31 -27 -62 -27 -70 0 -24 19 -17 32 10 16 36 39 33
32 -5 -11 -50 14 -35 41 26 14 31 25 60 25 65 0 19 -21 8 -32 -16 -19 -41 -39
-23 -27 24 2 7 -1 15 -6 17 -6 2 -23 -21 -38 -51z"/>
<path d="M3082 1602 c-9 -6 -10 -26 -6 -71 l7 -63 36 7 c42 8 51 13 51 27 0 6
-13 8 -30 6 -33 -5 -39 8 -12 28 16 13 16 14 -5 20 -28 8 -29 21 -3 29 11 3
20 11 20 16 0 11 -40 12 -58 1z"/>
<path d="M1876 1581 c-9 -14 -10 -86 -2 -99 11 -17 52 -15 71 5 24 24 38 64
26 76 -6 6 -12 9 -13 6 -2 -2 -10 -17 -18 -34 -24 -46 -46 -39 -42 13 3 39 -8
56 -22 33z"/>
<path d="M3017 1553 c-4 -3 -7 -17 -7 -29 0 -36 -18 -38 -35 -4 -17 33 -35 40
-35 13 1 -21 50 -95 66 -100 14 -5 22 14 30 77 6 46 -1 62 -19 43z"/>
<path d="M2066 1519 c-15 -32 -16 -33 -22 -11 -3 12 -12 22 -18 22 -14 0 -58
-99 -50 -112 8 -12 24 0 34 26 8 20 8 20 19 -7 14 -37 24 -29 51 38 17 41 20
59 12 67 -9 9 -15 2 -26 -23z"/>
<path d="M2140 1521 c-36 -35 -39 -74 -8 -95 30 -21 51 -20 73 4 22 25 13 50
-20 50 -26 0 -35 -24 -12 -33 7 -3 5 -6 -6 -6 -25 -1 -32 25 -13 54 10 16 26
25 42 25 31 0 28 24 -4 28 -14 2 -33 -8 -52 -27z"/>
<path d="M2865 1526 c-9 -13 -18 -47 -22 -75 -5 -43 -3 -51 11 -51 9 0 16 8
16 20 0 24 25 26 38 4 5 -9 14 -14 20 -10 9 5 7 24 -13 114 -7 29 -30 28 -50
-2z m22 -48 c-3 -8 -6 -5 -6 6 -1 11 2 17 5 13 3 -3 4 -12 1 -19z"/>
<path d="M2737 1533 c-4 -3 -7 -35 -7 -71 l0 -64 31 6 c17 3 35 6 40 6 5 0 9
7 9 16 0 12 -7 15 -25 12 -17 -4 -25 -1 -25 8 0 8 7 14 15 14 8 0 15 5 15 10
0 6 -7 13 -15 16 -21 8 -19 21 5 27 11 3 20 10 20 16 0 12 -52 15 -63 4z"/>
<path d="M2267 1502 c-23 -25 -36 -127 -16 -120 8 2 16 15 17 27 l4 23 29 -28
c34 -33 50 -25 26 15 -11 19 -13 31 -6 38 6 6 9 21 7 34 -4 31 -38 36 -61 11z
m33 -22 c0 -5 -5 -10 -11 -10 -5 0 -7 5 -4 10 3 6 8 10 11 10 2 0 4 -4 4 -10z"/>
<path d="M2376 1504 c-14 -35 -6 -63 22 -78 15 -8 21 -15 15 -16 -18 0 -16
-30 2 -30 22 0 44 40 47 85 3 40 -14 62 -21 28 -4 -25 -21 -44 -32 -37 -5 3
-9 18 -9 35 0 31 -14 39 -24 13z"/>
<path d="M2617 1503 c-10 -9 -9 -101 1 -107 5 -3 26 -1 46 5 42 12 44 36 3 31
-25 -3 -27 -1 -27 37 0 38 -8 50 -23 34z"/>
<path d="M2496 1404 c-9 -24 -7 -34 8 -34 13 0 26 20 26 41 0 15 -27 10 -34
-7z"/>
</g>
</svg>
